<?xml version="1.0" standalone="no"?>
<!DOCTYPE svg PUBLIC "-//W3C//DTD SVG 20010904//EN"
 "http://www.w3.org/TR/2001/REC-SVG-20010904/DTD/svg10.dtd">
<svg version="1.0" xmlns="http://www.w3.org/2000/svg"
 width="4268.000000pt" height="4268.000000pt" viewBox="0 0 4268.000000 4268.000000"
 preserveAspectRatio="xMidYMid meet">
<metadata>
Created by potrace 1.14, written by Peter Selinger 2001-2017
</metadata>
<g transform="translate(0.000000,4268.000000) scale(0.100000,-0.100000)"
fill="#000000" stroke="none">
<path d="M0 21340 l0 -21340 21340 0 21340 0 0 21340 0 21340 -21340 0 -21340
0 0 -21340z m13360 10744 c823 -87 1640 -473 2320 -1096 146 -133 330 -324
443 -459 l89 -105 81 17 c552 119 1165 -75 1609 -509 l76 -75 97 63 c250 162
546 277 850 331 151 27 455 37 617 20 277 -29 561 -112 823 -241 298 -146 491
-286 741 -535 230 -228 382 -424 529 -680 31 -55 60 -103 64 -107 4 -4 64 4
135 17 369 72 744 81 1136 25 641 -90 1211 -345 1598 -714 67 -65 97 -87 100
-76 3 8 28 60 56 115 159 311 381 517 624 580 82 21 232 21 314 0 317 -81 597
-404 748 -863 35 -107 67 -243 97 -415 l8 -48 39 50 c46 61 141 135 215 168
322 144 717 -14 881 -352 42 -86 70 -185 70 -251 0 -23 6 -46 13 -51 6 -5 125
-24 262 -42 567 -74 2282 -323 2310 -336 6 -3 -17 -3 -50 0 -287 24 -1392 93
-1985 125 -1780 94 -3605 134 -5141 112 -853 -13 -1165 -21 -1814 -47 -5083
-207 -9020 -1048 -11004 -2352 -722 -475 -1135 -967 -1275 -1522 -76 -301 -52
-571 73 -819 206 -411 682 -749 1454 -1032 l128 -47 -223 -134 c-508 -304
-962 -629 -1361 -972 l-139 -119 -101 43 c-281 120 -634 318 -864 486 -197
143 -305 234 -464 393 -355 355 -603 747 -754 1195 -174 518 -213 1026 -131
1715 l6 45 -15 -45 c-25 -73 -83 -354 -104 -505 -32 -221 -41 -354 -41 -585 0
-879 320 -1660 968 -2359 234 -253 595 -549 917 -752 l133 -84 -34 -40 c-529
-618 -832 -1197 -954 -1825 -23 -121 -50 -342 -50 -414 0 -59 8 -61 -160 41
-1156 699 -1996 1556 -2495 2543 -239 473 -403 976 -489 1495 -24 141 -32 205
-71 565 -119 1075 214 2371 862 3365 343 524 787 984 1263 1304 231 156 392
245 674 371 l150 67 27 105 c50 192 115 339 216 493 233 352 579 583 1013 676
90 20 134 23 310 23 113 0 226 -5 253 -11 44 -10 48 -9 52 11 3 11 19 86 35
166 159 762 474 1527 882 2140 181 272 348 478 568 704 797 816 1720 1164
2790 1050z m14690 -2544 c986 -9 1074 -13 1570 -71 596 -69 1103 -158 1585
-279 330 -82 330 -82 330 -111 0 -21 -6 -25 -47 -31 -162 -23 -554 -33 -1253
-33 -932 1 -1160 11 -2010 90 -520 48 -573 53 -910 75 -689 45 -2141 123
-2815 150 -271 10 -1124 40 -1166 40 -19 0 -24 5 -24 25 0 14 3 25 8 25 4 0
93 7 197 15 454 34 1437 78 2130 95 812 20 1180 21 2405 10z m4337 -1425 c154
-32 276 -92 370 -179 l57 -53 88 28 c594 186 1780 54 2430 -271 128 -64 210
-121 280 -192 l56 -59 219 -60 c240 -66 363 -102 526 -156 96 -31 108 -37 105
-57 -3 -21 -4 -21 -273 -19 -410 3 -838 28 -1555 88 -540 46 -781 76 -1472
180 -753 113 -1491 204 -2798 344 -716 77 -1995 201 -2077 201 -18 0 -23 6
-23 27 l0 26 648 -6 c930 -10 1801 -37 2478 -78 l172 -10 73 73 c86 85 178
136 304 167 100 24 293 28 392 6z m-4772 -4884 c430 -18 853 -40 1170 -61
2996 -202 5563 -769 7300 -1614 1943 -945 2719 -2184 2190 -3496 -506 -1256
-2222 -2501 -4833 -3507 -3022 -1163 -6963 -1909 -11027 -2087 -697 -31 -1170
-39 -2050 -33 -845 5 -1039 10 -1670 42 -3766 191 -6935 961 -8680 2109 -328
216 -522 372 -761 610 -298 298 -483 559 -610 862 -125 299 -179 616 -154 909
34 403 173 776 435 1170 940 1412 3350 2743 6705 3703 2608 746 5621 1219
8705 1366 270 13 734 30 1105 40 256 7 1933 -3 2175 -13z m10362 -6496 c-4
-152 -11 -215 -32 -315 -150 -717 -681 -1418 -1590 -2100 -2504 -1880 -7490
-3289 -12910 -3650 -1059 -70 -1923 -95 -2995 -87 -724 6 -948 12 -1550 42
-4315 215 -7754 1206 -9177 2646 -168 170 -251 270 -365 439 -158 234 -278
511 -327 755 -34 167 -54 456 -33 469 5 3 42 -36 82 -86 295 -363 764 -741
1315 -1058 347 -199 884 -451 1322 -619 1820 -701 4295 -1150 7078 -1286 1084
-53 2335 -58 3425 -15 4204 168 8201 921 11300 2130 872 340 1752 765 2406
1161 921 558 1604 1152 2014 1754 44 63 44 63 37 -180z"/>
<path d="M5489 23238 c-22 -35 -73 -129 -113 -210 -255 -510 -324 -1142 -185
-1708 51 -206 202 -612 320 -855 128 -265 322 -578 502 -808 279 -358 666
-737 974 -956 82 -58 88 -61 101 -44 11 16 9 22 -25 53 -69 63 -235 243 -337
365 -534 640 -918 1387 -1050 2045 -33 164 -64 433 -101 885 -21 249 -25 536
-14 893 10 328 10 385 -2 393 -23 15 -28 11 -70 -53z"/>
<path d="M36050 19354 c0 -9 -16 -64 -36 -123 -207 -619 -750 -1121 -1864
-1723 -216 -117 -1602 -812 -1885 -945 -678 -320 -1329 -573 -2435 -944 -1274
-429 -2540 -798 -3995 -1164 l-450 -114 3 -38 c2 -21 5 -39 6 -40 1 -1 99 9
217 22 1619 187 3530 550 5009 950 908 246 2059 611 2590 822 861 342 1637
841 2185 1404 390 401 652 837 739 1229 47 212 55 405 25 585 -16 97 -15 95
-65 95 -34 0 -44 -4 -44 -16z"/>
</g>
</svg>
